<?xml version="1.0" standalone="no"?>
<!DOCTYPE svg PUBLIC "-//W3C//DTD SVG 20010904//EN"
 "http://www.w3.org/TR/2001/REC-SVG-20010904/DTD/svg10.dtd">
<svg version="1.0" xmlns="http://www.w3.org/2000/svg"
 width="850.000000pt" height="160.000000pt" viewBox="0 0 850.000000 160.000000"
 preserveAspectRatio="xMidYMid meet">

<g transform="translate(0.000000,160.000000) scale(0.100000,-0.100000)"
fill="#ffffff" stroke="none">
<path d="M5898 1453 c-34 -39 -29 -100 10 -129 72 -55 166 62 102 126 -26 26
-91 27 -112 3z"/>
<path d="M3716 1424 c-38 -9 -96 -28 -130 -45 -33 -16 -52 -27 -41 -24 10 3
55 11 98 17 235 31 497 -89 630 -290 126 -189 151 -409 69 -622 -35 -93 -92
-174 -177 -252 -52 -49 -34 -48 41 0 82 53 163 138 168 176 15 104 39 344 42
420 2 48 8 102 12 120 14 51 14 153 0 178 -22 39 -95 132 -124 159 -156 143
-384 206 -588 163z"/>
<path d="M3420 1253 c-82 -42 -171 -137 -213 -224 -77 -163 -77 -309 1 -469
101 -207 341 -319 574 -268 79 17 78 25 -4 27 -224 4 -419 146 -494 361 -34
98 -34 232 0 330 31 87 83 166 148 225 28 25 48 45 46 45 -2 0 -28 -12 -58
-27z"/>
<path d="M4873 1135 c-18 -7 -52 -32 -77 -55 l-45 -41 -3 47 -3 47 -58 1 -57
1 0 -351 0 -350 65 0 64 1 3 262 c3 292 3 289 79 341 48 33 132 28 183 -12 64
-49 66 -57 66 -338 l0 -253 60 0 60 0 0 250 c0 280 2 291 73 348 76 62 187 37
234 -53 22 -42 23 -51 23 -295 l0 -253 63 3 62 2 0 274 c0 264 -1 276 -22 316
-47 86 -134 130 -241 120 -90 -8 -154 -47 -198 -123 -10 -17 -13 -15 -36 21
-33 52 -58 74 -105 91 -49 17 -149 17 -190 -1z"/>
<path d="M909 1108 c-87 -45 -112 -91 -107 -196 3 -72 5 -75 44 -111 30 -28
65 -46 138 -71 120 -40 146 -60 153 -121 4 -39 1 -50 -23 -78 -30 -35 -78 -61
-116 -61 -37 0 -105 39 -129 75 -13 19 -29 35 -36 35 -6 0 -19 -23 -29 -52
-17 -51 -17 -52 5 -69 26 -22 105 -39 175 -39 117 0 210 53 252 144 29 61 29
88 5 141 -22 49 -66 88 -123 109 -24 9 -70 25 -103 37 -81 30 -115 65 -115
119 0 34 6 48 34 76 31 31 39 34 92 34 55 0 59 -2 101 -45 23 -25 44 -45 46
-45 3 0 9 17 33 101 7 27 -64 49 -155 49 -68 0 -86 -4 -142 -32z"/>
<path d="M1485 1116 c-83 -39 -125 -103 -125 -191 0 -98 48 -151 173 -190 142
-45 172 -70 170 -140 -2 -61 -71 -125 -137 -125 -44 0 -90 25 -128 69 -19 22
-39 41 -45 41 -12 0 -44 -100 -36 -113 24 -40 209 -60 293 -32 104 35 179 136
167 226 -11 83 -59 125 -197 175 -139 49 -174 87 -152 163 17 54 43 74 106 79
64 5 109 -15 131 -59 13 -23 19 -28 29 -20 18 15 41 100 30 110 -42 38 -205
42 -279 7z"/>
<path d="M3022 1119 c-23 -12 -60 -42 -82 -68 l-40 -46 0 60 0 60 -55 0 -55 0
0 -345 0 -346 54 0 55 0 3 236 3 235 28 48 c37 62 79 83 138 67 23 -6 42 -10
44 -8 2 2 7 31 11 66 l7 62 -34 0 c-19 0 -53 -10 -77 -21z"/>
<path d="M5882 785 l3 -350 63 0 62 -1 0 351 0 350 -65 0 -65 0 2 -350z"/>
<path d="M252 1109 c-34 -11 -78 -29 -97 -40 -30 -18 -35 -26 -35 -60 0 -22 5
-39 11 -39 6 0 33 20 61 45 53 48 93 61 160 52 70 -9 138 -90 138 -165 0 -62
-13 -70 -150 -99 -185 -38 -246 -75 -271 -166 -32 -118 59 -227 189 -227 60 0
138 27 188 65 l34 26 34 -35 c30 -33 38 -36 89 -36 68 0 87 7 87 31 0 14 -7
19 -28 19 -51 0 -52 6 -52 260 0 225 -1 238 -22 280 -27 54 -71 85 -139 99
-71 16 -125 13 -197 -10z m238 -437 c0 -98 0 -98 -32 -129 -69 -65 -151 -81
-213 -43 -88 55 -79 172 18 221 43 23 143 47 195 48 l32 1 0 -98z"/>
<path d="M1950 865 c0 -269 5 -309 43 -366 39 -58 79 -74 187 -74 113 0 177
20 215 68 l25 32 0 -46 0 -47 63 3 62 2 0 343 0 342 -62 2 -62 1 -3 -255 c-3
-243 -4 -257 -26 -298 -52 -97 -182 -120 -255 -44 -52 54 -60 96 -65 357 l-4
240 -59 0 -59 0 0 -260z"/>
<path d="M6464 1121 c-53 -13 -120 -50 -159 -88 -112 -109 -128 -338 -34 -483
65 -101 164 -145 313 -138 71 2 93 8 152 38 68 34 69 36 72 78 2 23 0 42 -3
42 -3 0 -23 -13 -43 -30 -99 -79 -299 -70 -360 17 -30 44 -49 103 -53 163 l-4
55 248 -4 247 -4 0 59 c0 87 -26 150 -90 216 -43 44 -67 60 -109 72 -57 17
-124 19 -177 7z m166 -70 c45 -24 82 -95 88 -167 l5 -54 -189 2 -189 3 3 35
c7 67 75 169 127 191 37 15 119 10 155 -10z"/>
<path d="M6990 863 c0 -240 2 -267 21 -317 36 -97 104 -132 239 -123 92 6 152
29 185 71 l25 31 0 -46 0 -47 63 3 62 2 0 343 0 342 -63 2 -62 1 0 -233 c0
-141 -4 -251 -11 -278 -15 -59 -62 -109 -118 -124 -86 -23 -147 8 -187 94 -23
49 -24 59 -24 296 l0 245 -65 0 -65 0 0 -262z"/>
<path d="M7814 1045 c33 -44 93 -122 134 -173 45 -57 70 -97 66 -105 -5 -6
-63 -79 -131 -160 -68 -81 -123 -154 -123 -161 0 -9 14 -13 46 -12 l47 1 100
139 101 139 34 -39 c19 -22 65 -84 104 -139 l69 -100 70 0 c43 0 69 4 69 11 0
6 -58 89 -130 184 -71 95 -130 175 -130 178 0 8 107 139 186 227 l80 90 -56 0
-57 0 -98 -132 c-54 -73 -102 -133 -105 -133 -9 0 -124 159 -155 215 l-27 50
-78 0 -77 0 61 -80z"/>
<path d="M4247 965 c8 -25 17 -44 20 -41 7 6 -16 74 -27 81 -5 3 -2 -15 7 -40z"/>
<path d="M4185 472 c-127 -202 -400 -307 -634 -242 -86 24 -131 46 -195 95
-27 20 -50 35 -52 33 -8 -9 84 -102 139 -141 152 -107 330 -134 507 -78 116
36 255 145 264 206 10 62 15 175 8 175 -4 0 -20 -21 -37 -48z"/>
</g>
</svg>
