<?xml version="1.0" standalone="no"?>
<!DOCTYPE svg PUBLIC "-//W3C//DTD SVG 20010904//EN"
 "http://www.w3.org/TR/2001/REC-SVG-20010904/DTD/svg10.dtd">
<svg version="1.0" xmlns="http://www.w3.org/2000/svg"
 width="828.000000pt" height="301.000000pt" viewBox="0 0 828.000000 301.000000"
 preserveAspectRatio="xMidYMid meet">

<g transform="translate(0.000000,301.000000) scale(0.100000,-0.100000)"
fill="#ffffff" stroke="none">
<path d="M1807 2212 c-11 -12 -16 -35 -16 -68 2 -60 -11 -88 -60 -131 -35 -31
-36 -32 -21 -60 21 -38 63 -43 84 -11 12 18 14 35 7 75 -4 29 -4 50 1 47 4 -3
8 2 8 10 0 8 18 30 40 47 44 36 51 66 22 92 -24 22 -45 21 -65 -1z"/>
<path d="M5980 1983 c0 -128 -4 -233 -8 -233 -5 0 -19 11 -32 25 -49 52 -178
83 -267 65 -82 -17 -143 -51 -195 -109 -61 -68 -82 -135 -76 -250 3 -74 9 -95
35 -142 36 -64 116 -133 175 -151 72 -22 204 -16 265 11 28 12 59 31 69 42 25
28 34 23 34 -16 l0 -35 55 0 55 0 0 509 0 509 -55 4 -55 3 0 -232z m-171 -249
c71 -21 142 -90 160 -157 45 -160 -66 -306 -234 -306 -123 -1 -225 106 -225
237 0 100 69 199 157 226 63 19 79 19 142 0z"/>
<path d="M6285 2128 c-30 -16 -45 -39 -45 -70 0 -65 88 -94 129 -42 28 36 26
60 -8 95 -32 31 -45 34 -76 17z"/>
<path d="M1563 2104 c-16 -25 -16 -28 5 -65 25 -43 28 -102 7 -139 -22 -38
-18 -67 10 -86 23 -15 27 -15 50 0 30 20 32 45 5 88 -23 39 -26 96 -5 124 21
28 19 81 -4 94 -31 16 -49 12 -68 -16z"/>
<path d="M1910 1980 c-11 -11 -20 -28 -20 -38 0 -10 -7 -27 -15 -38 -8 -12
-12 -24 -10 -28 3 -3 2 -4 -2 -1 -3 3 -13 -1 -22 -8 -9 -8 -35 -19 -58 -26
-32 -9 -44 -18 -49 -37 -7 -29 19 -64 48 -64 25 0 58 35 58 63 0 30 48 75 93
88 66 18 84 53 45 89 -27 25 -43 25 -68 0z"/>
<path d="M2119 1858 c-35 -41 -39 -43 -95 -44 -32 -1 -64 -2 -71 -3 -18 -2
-35 -39 -28 -61 15 -47 78 -45 104 3 19 36 75 61 120 53 45 -7 81 14 81 48 0
60 -62 63 -111 4z"/>
<path d="M2814 1836 c-136 -33 -222 -127 -245 -267 -28 -177 63 -337 218 -384
69 -21 162 -19 226 5 54 20 141 85 133 99 -3 4 -23 20 -45 35 l-40 28 -31 -30
c-40 -41 -90 -56 -158 -49 -138 14 -219 152 -182 307 19 77 85 143 161 160 48
11 63 10 106 -4 27 -9 62 -30 78 -46 l28 -29 43 31 c23 16 40 35 38 42 -12 27
-91 77 -151 96 -74 23 -106 24 -179 6z"/>
<path d="M3421 1835 c-68 -19 -109 -44 -156 -96 -63 -70 -80 -119 -80 -234 0
-106 12 -143 72 -221 77 -102 255 -144 384 -91 63 26 125 70 141 101 9 17 6
25 -27 53 l-39 33 -35 -36 c-112 -116 -290 -92 -362 48 -10 21 -19 46 -19 58
0 20 5 20 254 20 158 0 257 4 261 10 13 21 -15 163 -42 212 -66 121 -214 181
-352 143z m145 -100 c30 -9 62 -27 81 -47 32 -34 59 -100 48 -118 -4 -6 -79
-10 -201 -10 -189 0 -194 0 -194 21 0 58 75 134 160 160 38 11 52 10 106 -6z"/>
<path d="M4142 1835 c-72 -20 -106 -39 -151 -84 -71 -71 -105 -182 -89 -291
11 -69 38 -123 90 -176 61 -64 118 -88 216 -92 103 -5 159 10 212 55 l40 35 0
-64 c0 -170 -74 -250 -230 -251 -88 0 -145 21 -207 77 l-40 35 -38 -39 -39
-40 28 -29 c70 -73 214 -119 334 -107 137 14 221 68 271 175 l26 56 3 368 3
367 -55 0 -56 0 0 -41 0 -41 -39 31 c-75 59 -187 82 -279 56z m148 -96 c67
-15 116 -54 146 -116 23 -47 26 -62 22 -127 -6 -90 -37 -141 -112 -182 -150
-82 -329 27 -329 201 0 74 25 128 84 178 59 51 112 64 189 46z"/>
<path d="M4922 1835 c-75 -21 -102 -37 -151 -90 -67 -73 -85 -122 -85 -240 0
-89 2 -106 26 -150 33 -65 92 -123 154 -155 42 -21 63 -25 144 -25 82 0 103 4
152 27 57 27 128 85 128 106 0 6 -17 24 -37 41 l-37 31 -32 -35 c-108 -118
-299 -92 -365 50 -37 79 -51 75 241 75 l260 0 0 43 c0 59 -25 149 -54 196 -68
108 -216 162 -344 126z m178 -110 c58 -30 86 -72 93 -135 l2 -25 -197 -3
c-195 -2 -198 -2 -198 18 0 59 74 134 160 161 31 10 106 1 140 -16z"/>
<path d="M6795 1840 c-51 -13 -80 -27 -113 -55 l-32 -27 0 36 0 36 -55 0 -55
0 0 -320 0 -320 55 0 55 0 0 188 c0 104 5 205 11 227 16 57 55 104 106 127 39
17 50 18 94 8 94 -23 109 -73 109 -354 0 -193 0 -194 23 -198 12 -2 36 -1 52
2 l30 5 1 195 c0 217 8 263 55 309 80 80 221 53 249 -47 5 -20 10 -133 10
-249 l0 -213 56 0 56 0 -4 248 c-3 199 -7 254 -20 282 -63 138 -268 169 -390
60 l-42 -37 -35 38 c-24 25 -54 42 -90 53 -59 17 -79 18 -126 6z"/>
<path d="M6260 1512 c0 -175 2 -321 4 -323 2 -2 27 -2 55 -1 l51 4 0 319 0
319 -55 0 -55 0 0 -318z"/>
<path d="M1826 1654 c-19 -18 -20 -38 -6 -65 13 -23 52 -25 85 -3 31 20 111
21 133 1 46 -41 114 -10 97 43 -11 36 -43 44 -84 23 -20 -10 -37 -21 -39 -24
-5 -10 -80 7 -106 25 -32 20 -60 20 -80 0z"/>
<path d="M816 1439 l-26 -20 0 -299 0 -299 26 -20 c26 -20 39 -21 301 -21 286
0 321 5 337 45 8 22 8 568 0 590 -16 40 -51 45 -337 45 -262 0 -275 -1 -301
-21z"/>
<path d="M1594 1436 l-29 -24 -3 -269 c-4 -292 1 -332 43 -351 18 -8 114 -12
306 -12 l280 0 24 25 25 24 0 289 c0 270 -1 291 -19 313 l-19 24 -290 3 -290
3 -28 -25z"/>
</g>
</svg>
