<?xml version="1.0" standalone="no"?>
<!DOCTYPE svg PUBLIC "-//W3C//DTD SVG 20010904//EN"
 "http://www.w3.org/TR/2001/REC-SVG-20010904/DTD/svg10.dtd">
<svg version="1.0" xmlns="http://www.w3.org/2000/svg"
 width="3840.000000pt" height="631.000000pt" viewBox="0 0 3840.000000 631.000000"
 preserveAspectRatio="xMidYMid meet">

<g transform="translate(0.000000,631.000000) scale(0.100000,-0.100000)"
fill="#ffffff" stroke="none">
<path d="M31075 5913 c-232 -11 -463 -52 -663 -119 -695 -231 -1125 -759
-1224 -1499 -19 -146 -19 -2205 0 -2350 77 -574 338 -1009 777 -1298 269 -177
623 -295 985 -328 270 -25 651 3 898 65 824 209 1350 833 1379 1637 5 123 3
158 -7 164 -29 18 -113 25 -551 45 -416 20 -460 20 -487 6 -38 -19 -48 -53
-56 -171 -19 -312 -198 -583 -471 -715 -258 -125 -635 -127 -894 -5 -240 114
-405 324 -464 593 -22 96 -22 109 -22 1167 0 992 1 1076 18 1159 57 278 211
484 456 607 152 76 365 110 570 90 176 -17 298 -56 421 -136 243 -157 373
-393 387 -703 5 -109 8 -125 27 -137 30 -21 137 -19 602 14 411 29 452 36 468
76 11 30 6 192 -9 308 -77 584 -425 1059 -965 1315 -268 128 -523 189 -878
212 -142 9 -168 10 -297 3z"/>
<path d="M10065 5885 c-368 -46 -726 -174 -1030 -368 -182 -117 -420 -332
-561 -507 -174 -215 -346 -522 -431 -770 -15 -41 -37 -92 -50 -113 -109 -175
-251 -534 -302 -767 -49 -224 -54 -277 -55 -525 -1 -250 8 -330 56 -535 57
-245 185 -537 332 -758 67 -101 102 -146 241 -311 89 -106 359 -335 515 -436
162 -105 458 -262 610 -322 473 -189 1047 -225 1565 -99 694 170 1246 607
1573 1246 61 120 137 300 157 370 4 14 47 104 95 201 137 272 202 449 256 699
148 691 -18 1378 -472 1950 -87 109 -315 337 -424 423 -153 122 -269 194 -572
358 -253 136 -543 226 -848 264 -141 18 -513 18 -655 0z m928 -1201 c36 -11
127 -86 212 -175 80 -84 160 -196 227 -319 196 -361 285 -876 232 -1353 -22
-201 -36 -261 -75 -315 -141 -199 -355 -425 -540 -569 -281 -219 -565 -358
-854 -418 -114 -24 -142 -27 -299 -23 -200 4 -191 0 -328 128 -246 227 -416
574 -495 1005 -26 141 -27 167 -27 435 0 250 3 300 22 405 28 151 27 149 74
218 104 154 315 377 490 519 366 296 753 463 1118 481 56 3 213 -9 243 -19z"/>
<path d="M518 5821 l-33 -29 -3 -2664 c-2 -2520 -1 -2665 15 -2698 31 -60 41
-61 552 -58 425 3 458 4 483 22 16 10 32 34 38 55 8 25 10 858 8 2689 l-3
2654 -33 29 -32 29 -480 0 -480 0 -32 -29z"/>
<path d="M2578 5821 l-33 -29 -3 -2654 c-2 -1831 0 -2664 8 -2689 6 -21 22
-45 38 -55 25 -18 58 -19 477 -22 469 -3 505 -1 541 39 19 21 19 64 24 1692 5
1521 6 1672 21 1675 12 2 280 -440 1004 -1650 543 -909 998 -1668 1012 -1687
14 -18 44 -42 67 -52 38 -17 73 -19 469 -19 466 0 478 1 514 56 17 27 18 130
21 2644 2 1438 0 2639 -3 2669 -5 41 -14 61 -35 83 l-28 28 -474 0 c-519 0
-501 2 -533 -60 -13 -25 -15 -232 -15 -1658 0 -1720 1 -1674 -42 -1639 -9 6
-453 741 -988 1632 -535 891 -983 1635 -997 1653 -56 75 -34 72 -550 72 l-463
0 -32 -29z"/>
<path d="M13793 5840 c-29 -12 -43 -40 -43 -86 0 -41 1567 -5206 1605 -5291
41 -92 15 -88 590 -88 563 0 546 -2 585 76 12 22 385 1220 831 2662 640 2070
809 2629 805 2657 -3 20 -16 44 -31 58 l-26 22 -493 0 -493 0 -33 -23 c-19
-12 -42 -36 -51 -52 -9 -17 -240 -865 -514 -1885 -273 -1020 -503 -1876 -511
-1902 -17 -54 -47 -65 -64 -26 -6 13 -240 869 -521 1903 -281 1034 -519 1893
-528 1910 -9 16 -32 40 -51 52 l-33 23 -501 -1 c-276 0 -511 -4 -523 -9z"/>
<path d="M20363 5830 c-18 -10 -39 -29 -47 -42 -24 -37 -1696 -5286 -1696
-5324 0 -43 34 -80 81 -89 19 -3 250 -5 514 -3 l480 3 33 23 c18 13 39 37 48
53 8 17 66 199 129 406 62 207 119 380 127 384 7 5 453 9 990 9 l978 0 14 -22
c8 -13 65 -189 125 -393 61 -203 119 -381 129 -394 10 -14 31 -34 46 -45 27
-21 38 -21 538 -21 l510 0 29 33 c17 19 29 44 29 59 0 30 -1659 5235 -1690
5301 -11 24 -34 51 -52 62 -32 19 -52 20 -658 20 -602 0 -626 -1 -657 -20z
m676 -1268 c15 -27 702 -2362 708 -2406 4 -26 2 -41 -8 -47 -8 -5 -332 -9
-726 -9 -703 0 -712 0 -723 20 -9 16 55 247 341 1223 193 661 358 1210 367
1220 19 22 29 22 41 -1z"/>
<path d="M24181 5836 c-53 -30 -50 140 -50 -2721 -1 -2107 2 -2665 12 -2685 7
-14 28 -33 47 -43 32 -16 72 -17 495 -15 516 3 501 1 526 76 10 29 11 402 6
1668 -6 1409 -5 1633 7 1650 13 17 16 17 30 4 8 -8 459 -757 1001 -1665 542
-907 1000 -1664 1016 -1681 17 -17 47 -36 68 -43 61 -18 871 -15 916 3 71 30
65 -215 65 2731 0 2461 -1 2659 -17 2685 -9 16 -27 33 -40 39 -16 7 -175 11
-484 11 -499 0 -502 0 -527 -55 -9 -20 -12 -413 -12 -1655 0 -1499 -1 -1630
-16 -1645 -16 -15 -18 -15 -34 2 -9 10 -460 755 -1001 1657 -731 1217 -993
1645 -1018 1665 l-34 26 -466 2 c-374 2 -471 0 -490 -11z"/>
<path d="M33838 5820 c-25 -26 -29 -37 -25 -63 3 -18 367 -759 809 -1647 l803
-1615 5 -1020 c5 -964 6 -1021 23 -1047 10 -14 32 -31 49 -37 47 -16 925 -15
957 2 13 6 34 25 45 40 21 28 21 32 26 1045 l5 1017 808 1612 c883 1763 842
1674 781 1722 -26 21 -36 21 -538 21 -488 0 -512 -1 -543 -19 -17 -11 -41 -33
-53 -49 -12 -16 -239 -492 -505 -1058 -277 -590 -489 -1030 -497 -1032 -8 -1
-22 5 -31 15 -9 10 -232 480 -497 1043 -264 564 -491 1035 -503 1048 -49 53
-39 52 -582 52 l-507 0 -30 -30z"/>
</g>
</svg>
