<svg xmlns="http://www.w3.org/2000/svg" version="1.0" preserveAspectRatio="xMidYMid meet" viewBox="119.13 898.09 846.74 127.71">

<g transform="translate(0.000000,1920.000000) scale(0.100000,-0.100000)" fill="#000000" stroke="none">
<path d="M3315 10210 c-176 -36 -322 -149 -396 -310 -16 -36 -41 -87 -56 -114 -59 -110 -79 -281 -48 -401 47 -180 203 -337 413 -415 79 -30 207 -37 294 -16 164 38 305 148 370 286 20 41 52 111 73 155 45 95 59 180 52 299 -5 77 -11 100 -47 174 -113 236 -410 391 -655 342z m278 -303 c53 -53 83 -113 103 -208 21 -96 13 -217 -16 -264 -25 -40 -108 -117 -165 -153 -54 -34 -161 -72 -207 -72 -100 0 -198 181 -198 365 0 111 13 140 95 222 98 96 203 148 308 152 32 1 44 -6 80 -42z"/>
<path d="M7963 10205 c-174 -47 -283 -168 -313 -346 -8 -45 -10 -157 -8 -321 4 -227 7 -259 26 -310 41 -113 107 -186 214 -237 158 -75 346 -63 494 31 98 62 161 165 179 294 8 62 7 62 -130 64 -121 3 -115 4 -115 -30 0 -39 -24 -98 -53 -128 -80 -86 -245 -82 -320 7 -45 54 -49 85 -45 376 3 257 4 272 25 305 46 75 135 109 233 90 91 -17 147 -81 158 -179 l5 -44 107 6 c143 8 143 9 135 66 -26 188 -133 308 -320 356 -73 19 -202 18 -272 0z"/>
<path d="M1202 10202 c-10 -7 -12 -138 -10 -623 l3 -614 118 -3 117 -3 -2 623 -3 623 -105 3 c-58 1 -111 -2 -118 -6z"/>
<path d="M1662 10198 c-9 -9 -12 -158 -12 -609 0 -329 3 -604 6 -613 5 -13 25 -16 119 -16 97 0 114 2 119 17 4 9 6 180 6 380 -1 200 2 364 7 364 4 1 40 -52 78 -119 123 -212 237 -406 255 -432 9 -14 32 -52 50 -85 18 -33 44 -75 57 -93 l25 -33 106 3 107 3 0 620 0 620 -104 3 c-67 2 -108 -1 -117 -9 -12 -9 -14 -78 -14 -385 0 -206 -3 -374 -7 -374 -8 0 -19 18 -75 120 -17 30 -36 62 -43 70 -7 8 -47 74 -88 145 -125 219 -247 419 -260 427 -20 13 -201 10 -215 -4z"/>
<path d="M4183 10194 c-6 -16 5 -61 69 -269 22 -71 46 -153 53 -180 7 -28 28 -102 48 -165 51 -161 100 -324 142 -469 20 -69 41 -131 47 -138 7 -9 43 -13 129 -13 115 0 120 1 128 23 5 12 30 92 56 177 26 85 67 220 92 300 24 80 64 210 88 290 25 80 65 210 90 289 34 109 42 147 34 158 -15 18 -222 19 -236 1 -10 -13 -34 -99 -128 -453 -98 -373 -111 -419 -121 -422 -6 -2 -18 29 -28 69 -19 78 -79 302 -151 563 -24 88 -47 177 -50 198 -4 21 -15 42 -26 47 -10 6 -65 10 -124 10 -87 0 -107 -3 -112 -16z"/>
<path d="M5663 10202 c-6 -4 -34 -79 -62 -167 -49 -154 -184 -580 -276 -870 -24 -77 -45 -153 -47 -170 l-3 -30 119 -3 c89 -2 122 1 128 10 4 7 20 52 35 101 l26 87 226 0 226 0 29 -100 29 -100 123 0 124 0 0 24 c0 14 -22 94 -49 178 -27 84 -70 221 -96 303 -26 83 -64 204 -85 270 -21 66 -61 194 -90 285 -29 91 -57 171 -62 178 -12 13 -274 18 -295 4z m202 -462 c26 -91 63 -213 80 -272 18 -59 30 -109 27 -112 -8 -9 -332 -7 -332 1 0 8 37 136 100 348 22 72 44 150 50 174 6 24 15 40 19 35 4 -5 29 -83 56 -174z"/>
<path d="M6521 10196 c-8 -9 -10 -181 -9 -622 l3 -609 115 0 115 0 3 383 c1 222 6 382 11 382 5 0 24 -26 42 -57 17 -32 64 -112 104 -178 39 -66 127 -214 195 -328 l123 -208 111 3 111 3 3 609 c1 441 -1 613 -9 622 -12 15 -180 20 -213 8 -14 -5 -16 -48 -16 -381 0 -288 -3 -374 -12 -371 -7 3 -45 60 -86 129 -306 513 -368 615 -377 621 -19 14 -202 9 -214 -6z"/>
<path d="M8703 10203 c-7 -2 -13 -9 -13 -14 0 -6 82 -175 182 -377 l183 -367 5 -240 5 -240 115 0 115 0 5 250 5 250 182 360 c130 258 178 364 171 373 -7 8 -44 12 -120 12 -103 0 -110 -1 -132 -25 -13 -14 -31 -46 -41 -72 -10 -27 -38 -88 -62 -138 -24 -49 -60 -127 -80 -172 -19 -46 -40 -83 -47 -83 -6 0 -55 96 -109 214 -54 117 -107 227 -118 245 l-19 31 -107 -1 c-60 0 -114 -3 -120 -6z"/>
</g>
</svg>