<?xml version="1.0" standalone="no"?>
<!DOCTYPE svg PUBLIC "-//W3C//DTD SVG 20010904//EN"
 "http://www.w3.org/TR/2001/REC-SVG-20010904/DTD/svg10.dtd">
<svg version="1.0" xmlns="http://www.w3.org/2000/svg"
 width="1285.000000pt" height="600.000000pt" viewBox="0 0 1285.000000 600.000000"
 preserveAspectRatio="xMidYMid meet">

<g transform="translate(0.000000,600.000000) scale(0.100000,-0.100000)"
fill="#000000" stroke="none">
<path d="M6520 5652 c-58 -53 -134 -123 -170 -156 l-65 -59 83 6 c111 8 365
-9 477 -32 350 -72 527 -268 596 -661 24 -134 40 -537 21 -548 -5 -4 -322 -9
-702 -11 -548 -3 -692 -1 -688 9 2 7 98 97 213 201 l210 189 223 0 c205 0 222
1 222 18 0 48 -30 194 -50 239 -59 139 -196 192 -465 180 -239 -11 -336 -63
-405 -220 -40 -90 -50 -183 -52 -476 -2 -354 13 -428 114 -537 76 -83 191
-119 408 -130 172 -8 502 27 673 71 29 8 50 9 53 3 13 -21 94 -392 86 -399
-18 -17 -286 -70 -477 -95 -177 -24 -503 -23 -640 0 -312 52 -515 172 -658
388 -104 158 -155 360 -163 648 -3 102 -2 219 4 260 5 41 9 76 8 77 -1 1 -42
-35 -92 -80 -50 -45 -139 -125 -198 -177 l-107 -95 6 -120 c39 -719 307 -1077
891 -1191 104 -20 382 -44 514 -44 149 0 417 25 538 49 368 76 614 262 745
565 72 166 108 345 126 616 11 161 15 1568 5 1595 -5 13 -75 15 -593 14 l-586
0 -105 -97z"/>
</g>
</svg>
