<svg xmlns="http://www.w3.org/2000/svg" version="1.0" preserveAspectRatio="xMidYMid meet" viewBox="114.7 891.99 847.3 138.02">

<g transform="translate(0.000000,1920.000000) scale(0.100000,-0.100000)" fill="#000000" stroke="none">
<path d="M7084 10272 c-18 -11 -34 -49 -34 -77 0 -36 42 -75 80 -75 69 0 108 94 58 140 -22 20 -82 27 -104 12z"/>
<path d="M4850 10231 c-66 -15 -185 -60 -178 -66 2 -1 39 4 83 12 130 23 278 1 411 -64 223 -107 379 -354 385 -608 l1 -50 8 40 c11 51 33 299 31 345 -2 58 -41 120 -131 211 -70 71 -100 94 -170 127 -146 70 -291 87 -440 53z"/>
<path d="M4540 10048 c-105 -60 -194 -173 -236 -298 -29 -86 -24 -245 9 -332 44 -115 100 -187 195 -252 103 -71 167 -90 292 -90 72 0 117 5 145 17 l40 16 -65 0 c-140 2 -269 57 -370 160 -212 214 -215 532 -7 748 33 35 58 63 56 63 -2 0 -29 -14 -59 -32z"/>
<path d="M6062 9951 c-38 -10 -106 -55 -131 -88 -23 -29 -31 -20 -31 34 l0 43 -55 0 -55 0 0 -355 0 -355 65 0 65 0 0 253 c0 242 1 255 23 297 45 90 149 114 238 56 73 -49 79 -74 79 -358 l0 -248 54 0 55 0 3 258 c3 250 4 258 27 295 34 56 86 87 144 87 59 0 98 -19 134 -67 l28 -36 3 -269 3 -268 65 0 64 0 0 273 c0 311 -2 320 -83 394 -114 105 -324 62 -391 -80 -5 -9 -7 -9 -12 0 -17 37 -77 102 -106 116 -41 19 -142 28 -186 18z"/>
<path d="M2042 9931 c-109 -37 -163 -127 -147 -242 10 -74 59 -121 157 -150 107 -32 157 -58 173 -90 44 -84 -26 -181 -130 -181 -53 0 -101 27 -140 78 -15 20 -31 32 -36 27 -14 -14 -37 -100 -30 -110 12 -19 47 -31 123 -43 132 -19 216 7 291 90 99 109 56 253 -90 305 -208 73 -253 118 -208 206 45 86 183 90 232 8 10 -16 23 -29 29 -29 13 0 46 98 38 112 -9 14 -107 38 -158 38 -28 -1 -75 -9 -104 -19z"/>
<path d="M2640 9941 c-125 -38 -191 -129 -176 -240 12 -91 57 -130 206 -177 107 -33 140 -64 140 -128 0 -37 -6 -51 -33 -79 -73 -78 -195 -61 -250 33 -10 17 -23 27 -31 24 -13 -5 -36 -67 -36 -97 0 -61 239 -84 338 -33 35 18 109 98 122 132 35 92 -23 198 -131 238 -24 8 -70 25 -103 37 -84 31 -119 65 -119 117 0 51 24 89 68 108 66 27 143 7 173 -46 9 -16 22 -30 29 -30 14 0 47 95 38 110 -18 29 -173 50 -235 31z"/>
<path d="M4195 9941 c-46 -11 -68 -26 -113 -75 -23 -25 -45 -46 -47 -46 -3 0 -5 24 -5 53 l0 52 -60 0 -60 0 0 -347 0 -348 59 0 60 0 3 244 3 244 30 43 c44 63 72 76 133 63 l50 -10 6 44 c13 96 11 100 -59 83z"/>
<path d="M7060 9585 l0 -355 65 0 65 0 0 355 0 355 -65 0 -65 0 0 -355z"/>
<path d="M1328 9911 c-31 -10 -72 -28 -92 -40 -30 -19 -36 -28 -36 -56 0 -49 16 -51 58 -9 42 43 104 73 146 74 85 0 176 -91 176 -175 0 -61 -20 -74 -157 -102 -207 -42 -276 -95 -276 -212 0 -185 217 -250 392 -117 l34 26 18 -29 c27 -44 104 -64 163 -41 34 13 36 49 3 43 -14 -3 -31 2 -40 12 -15 14 -17 46 -17 251 0 255 -4 281 -58 337 -53 55 -202 74 -314 38z m252 -440 l0 -99 -50 -45 c-78 -71 -178 -73 -234 -6 -34 40 -36 113 -5 153 37 48 159 93 257 95 l32 1 0 -99z"/>
<path d="M3060 9663 c0 -240 2 -267 20 -317 13 -33 35 -67 56 -85 19 -17 36 -31 38 -31 2 0 28 -5 57 -10 38 -7 76 -7 129 1 89 13 119 27 154 71 l26 33 0 -47 0 -48 65 0 65 0 0 348 0 348 -65 0 -65 -1 0 -235 c0 -250 -6 -294 -46 -348 -34 -44 -73 -62 -138 -62 -64 0 -103 26 -139 94 -21 39 -22 55 -25 296 l-3 255 -65 0 -64 0 0 -262z"/>
<path d="M7623 9916 c-144 -45 -233 -177 -233 -345 0 -84 22 -159 66 -228 94 -147 321 -185 499 -84 46 27 50 31 47 62 -2 19 -5 36 -7 38 -2 1 -19 -8 -37 -21 -88 -65 -215 -78 -309 -30 -46 23 -58 35 -83 85 -22 44 -29 73 -30 120 l-1 62 246 -4 246 -4 6 26 c4 14 2 49 -3 78 -23 119 -94 211 -188 243 -55 19 -161 20 -219 2z m163 -47 c67 -17 117 -94 126 -195 l3 -39 -194 -3 -194 -2 6 45 c15 108 101 200 190 204 10 1 38 -4 63 -10z"/>
<path d="M8190 9649 l0 -277 28 -53 c38 -75 94 -103 201 -102 105 1 158 17 203 63 l38 38 0 -44 0 -44 65 0 65 0 0 348 0 347 -64 0 -65 0 -3 -260 -3 -260 -27 -46 c-32 -55 -76 -79 -145 -79 -65 0 -106 27 -140 92 l-28 53 -3 250 -3 251 -60 -1 -59 0 0 -276z"/>
<path d="M8970 9921 c0 -2 59 -79 130 -171 72 -93 130 -171 130 -175 0 -4 -57 -76 -127 -161 -71 -85 -129 -161 -131 -169 -3 -12 8 -15 45 -15 l48 1 100 140 100 141 46 -52 c25 -29 73 -92 105 -141 l59 -88 73 -1 c39 0 72 4 72 9 0 5 -60 89 -134 187 -100 132 -132 182 -126 194 9 16 138 169 214 255 l44 50 -55 1 -55 0 -99 -133 c-54 -73 -102 -133 -106 -133 -12 1 -120 151 -153 212 l-29 53 -76 0 c-41 0 -75 -2 -75 -4z"/>
<path d="M5399 9765 c8 -24 17 -42 19 -40 6 5 -18 74 -27 80 -5 2 -1 -15 8 -40z"/>
<path d="M5536 9370 c-15 -107 -112 -271 -221 -373 -49 -45 -23 -39 55 14 103 70 160 143 160 207 0 24 5 74 11 113 6 38 9 75 6 82 -2 6 -7 -13 -11 -43z"/>
<path d="M5337 9267 c-35 -52 -110 -131 -155 -163 -47 -33 -142 -74 -206 -88 -169 -40 -362 1 -490 103 -48 38 -53 39 -27 2 38 -53 132 -130 195 -160 224 -107 470 -72 643 93 l67 63 8 99 c4 54 5 100 4 102 -2 1 -20 -22 -39 -51z"/>
</g>
</svg>