<?xml version="1.0" standalone="no"?>
<!DOCTYPE svg PUBLIC "-//W3C//DTD SVG 20010904//EN"
 "http://www.w3.org/TR/2001/REC-SVG-20010904/DTD/svg10.dtd">
<svg version="1.0" xmlns="http://www.w3.org/2000/svg"
 width="2796.000000pt" height="1019.000000pt" viewBox="0 0 2796.000000 1019.000000"
 preserveAspectRatio="xMidYMid meet">

<g transform="translate(0.000000,1019.000000) scale(0.100000,-0.100000)"
fill="#000000" stroke="none">
<path d="M6135 7541 c-22 -10 -52 -31 -67 -47 -51 -55 -59 -109 -32 -216 41
-160 -28 -323 -180 -426 -90 -61 -120 -112 -112 -191 20 -212 310 -231 365
-24 9 34 9 55 -5 105 -23 89 -15 205 19 280 30 67 94 139 154 174 57 34 101
86 109 129 18 96 -22 180 -100 216 -52 24 -100 24 -151 0z"/>
<path d="M20170 6719 l0 -791 -55 50 c-375 343 -983 373 -1431 71 -311 -210
-491 -595 -471 -1009 27 -529 345 -923 855 -1057 131 -34 374 -43 504 -19 213
40 405 133 546 264 l52 49 0 -139 0 -138 190 0 190 0 0 1755 0 1755 -190 0
-190 0 0 -791z m-530 -858 c335 -113 541 -397 542 -751 2 -381 -226 -683 -587
-781 -107 -29 -307 -32 -410 -5 -267 69 -461 264 -536 541 -32 115 -32 354 -1
470 76 281 269 477 538 545 65 16 104 19 219 16 126 -2 149 -6 235 -35z"/>
<path d="M21263 7231 c-88 -23 -172 -102 -194 -185 -67 -250 242 -432 429
-253 95 91 106 230 27 338 -55 76 -175 122 -262 100z"/>
<path d="M5325 7192 c-40 -25 -83 -77 -91 -108 -12 -47 1 -133 25 -162 81
-101 111 -176 111 -282 0 -87 -19 -146 -71 -226 -54 -84 -63 -149 -29 -219 36
-74 129 -117 209 -95 81 22 141 97 141 179 0 53 -11 78 -64 151 -56 76 -76
140 -76 242 0 91 20 153 76 234 66 96 53 205 -31 270 -50 38 -153 46 -200 16z"/>
<path d="M6485 6753 c-68 -35 -88 -70 -119 -198 -38 -160 -161 -269 -336 -300
-44 -8 -88 -19 -98 -24 -34 -18 -81 -80 -92 -121 -36 -133 93 -257 228 -220
78 20 124 77 142 171 32 168 176 314 330 335 105 14 159 43 190 104 46 91 12
208 -73 249 -52 25 -129 27 -172 4z"/>
<path d="M7285 6441 c-39 -17 -105 -82 -105 -102 0 -18 -101 -117 -144 -143
-23 -13 -68 -32 -100 -41 -58 -17 -83 -17 -252 1 -47 5 -68 2 -95 -11 -76 -39
-112 -93 -112 -170 0 -84 52 -153 131 -175 55 -15 82 -12 138 14 42 19 58 35
88 84 48 80 132 155 204 183 62 25 186 31 289 15 134 -22 248 97 214 222 -29
111 -152 170 -256 123z"/>
<path d="M9660 6254 c-422 -54 -720 -254 -893 -599 -79 -159 -117 -336 -117
-550 0 -348 107 -630 321 -844 209 -209 477 -311 815 -311 256 0 458 65 654
210 75 56 203 185 198 200 -2 6 -71 62 -153 125 l-150 115 -20 -28 c-11 -15
-51 -59 -90 -98 -125 -126 -278 -181 -470 -170 -202 11 -342 72 -475 205 -166
167 -228 351 -217 643 6 161 20 222 77 346 88 187 230 311 430 374 64 20 96
23 220 23 167 0 233 -17 340 -86 64 -41 150 -124 178 -171 9 -16 20 -28 25
-28 15 0 306 224 307 236 0 23 -164 176 -251 233 -173 114 -351 170 -564 176
-71 2 -146 1 -165 -1z"/>
<path d="M11685 6249 c-484 -65 -854 -428 -942 -924 -24 -133 -21 -343 6 -474
100 -477 460 -823 929 -891 133 -20 374 -8 495 23 169 45 335 135 479 259 73
64 183 197 172 208 -5 4 -52 43 -104 86 -52 42 -116 95 -141 116 l-46 38 -37
-55 c-96 -145 -252 -256 -433 -307 -93 -26 -275 -31 -363 -9 -86 21 -229 93
-296 148 -131 109 -235 295 -268 476 l-7 37 882 0 882 0 -6 188 c-6 199 -22
295 -70 422 -59 158 -128 264 -247 380 -136 134 -309 224 -505 265 -98 20
-286 27 -380 14z m390 -382 c224 -73 370 -254 400 -499 l7 -58 -671 0 -671 0
0 25 c0 86 93 256 192 351 104 100 204 157 343 195 103 28 289 21 400 -14z"/>
<path d="M14116 6249 c-398 -51 -733 -307 -878 -668 -17 -41 -42 -117 -56
-170 -23 -87 -25 -114 -26 -286 0 -174 2 -198 26 -287 131 -483 541 -808 1053
-834 302 -16 554 68 752 251 l76 70 -6 -205 c-8 -257 -27 -357 -93 -489 -83
-167 -224 -279 -419 -331 -104 -27 -301 -37 -415 -21 -238 35 -463 156 -600
323 -29 35 -55 67 -59 71 -4 4 -70 -58 -146 -138 -127 -135 -137 -148 -127
-170 14 -30 166 -164 257 -225 148 -100 329 -172 520 -206 134 -23 431 -24
565 -1 539 92 834 413 890 966 6 64 10 516 10 1202 l0 1099 -190 0 -190 0 0
-141 0 -141 -65 60 c-232 217 -545 314 -879 271z m362 -365 c268 -55 466 -237
552 -509 18 -55 24 -102 28 -222 5 -186 -9 -263 -76 -396 -37 -74 -62 -108
-131 -178 -71 -71 -102 -94 -181 -132 -128 -64 -226 -87 -360 -87 -213 0 -365
64 -520 220 -81 80 -103 109 -143 190 -60 121 -78 189 -84 321 -19 373 214
696 568 789 93 24 242 26 347 4z"/>
<path d="M16753 6250 c-515 -73 -886 -459 -953 -992 -45 -364 68 -720 310
-972 139 -145 321 -251 517 -303 130 -34 381 -43 518 -19 278 48 513 188 707
419 l48 58 -141 117 c-78 64 -147 118 -154 120 -7 2 -27 -20 -45 -47 -17 -28
-67 -84 -111 -125 -204 -192 -497 -254 -762 -161 -168 58 -322 196 -407 365
-31 60 -67 170 -76 225 l-6 45 881 0 881 0 0 123 c0 289 -57 507 -183 701
-141 215 -365 369 -624 426 -101 23 -309 33 -400 20z m322 -365 c262 -56 431
-245 470 -527 l6 -48 -676 0 c-639 0 -676 1 -671 18 2 9 7 33 11 52 4 19 25
73 47 120 34 72 55 100 137 180 107 106 206 165 336 200 87 23 242 26 340 5z"/>
<path d="M22990 6249 c-157 -24 -334 -109 -451 -217 l-69 -64 0 116 0 116
-206 0 -206 0 7 -57 c3 -32 8 -527 11 -1100 l5 -1043 194 0 194 0 3 673 c4
658 4 674 26 752 67 244 208 400 417 460 70 21 231 16 310 -9 109 -34 195
-115 236 -224 51 -136 51 -148 56 -924 l5 -728 188 0 189 0 3 683 4 682 26 97
c81 296 253 438 528 438 272 -1 408 -105 466 -360 15 -66 18 -160 21 -807 l4
-733 190 0 190 0 -4 793 c-3 764 -4 795 -24 878 -60 244 -175 398 -368 493
-103 51 -170 70 -305 87 -224 27 -434 -21 -610 -141 -53 -36 -164 -146 -205
-203 l-20 -28 -55 83 c-122 183 -322 283 -585 293 -55 2 -129 -1 -165 -6z"/>
<path d="M21130 5100 l0 -1100 190 0 190 0 0 1100 0 1100 -190 0 -190 0 0
-1100z"/>
<path d="M6226 5655 c-152 -54 -167 -264 -24 -334 78 -37 150 -26 238 38 127
92 335 85 466 -15 58 -45 83 -54 145 -54 107 0 184 75 184 180 0 112 -82 186
-200 178 -52 -3 -71 -10 -124 -46 -77 -51 -144 -72 -232 -72 -88 0 -172 27
-246 79 -88 61 -135 72 -207 46z"/>
<path d="M2805 4921 c-56 -25 -101 -66 -133 -120 l-27 -46 -3 -950 c-3 -1064
-7 -997 70 -1081 21 -23 62 -52 91 -65 l52 -24 940 0 c937 0 940 0 986 21 58
27 116 85 143 143 21 46 21 49 21 991 0 884 -1 947 -18 983 -27 57 -86 118
-142 143 l-50 24 -945 0 c-893 0 -947 -1 -985 -19z"/>
<path d="M5448 4926 c-56 -20 -111 -69 -144 -128 l-29 -53 0 -955 0 -955 27
-51 c31 -59 73 -98 138 -128 45 -21 52 -21 985 -21 l940 0 50 23 c61 28 98 62
133 122 l27 45 3 944 c3 1048 6 998 -63 1079 -19 22 -58 52 -87 66 l-52 26
-945 0 c-755 -1 -953 -4 -983 -14z"/>
</g>
</svg>
