<svg xmlns="http://www.w3.org/2000/svg" xmlns:xlink="http://www.w3.org/1999/xlink" id="visual" version="1.1" viewBox="0 351 960 190"><path d="M0 351L22.8 359C45.7 367 91.3 383 137 380.3C182.7 377.7 228.3 356.3 274 352.2C319.7 348 365.3 361 411.2 372C457 383 503 392 548.8 387C594.7 382 640.3 363 686 362.2C731.7 361.3 777.3 378.7 823 387.8C868.7 397 914.3 398 937.2 398.5L960 399L960 541L937.2 541C914.3 541 868.7 541 823 541C777.3 541 731.7 541 686 541C640.3 541 594.7 541 548.8 541C503 541 457 541 411.2 541C365.3 541 319.7 541 274 541C228.3 541 182.7 541 137 541C91.3 541 45.7 541 22.8 541L0 541Z" fill="#fa7268"/><path d="M0 419L22.8 417.3C45.7 415.7 91.3 412.3 137 417.2C182.7 422 228.3 435 274 435.7C319.7 436.3 365.3 424.7 411.2 420.2C457 415.7 503 418.3 548.8 414.8C594.7 411.3 640.3 401.7 686 398.3C731.7 395 777.3 398 823 397.8C868.7 397.7 914.3 394.3 937.2 392.7L960 391L960 541L937.2 541C914.3 541 868.7 541 823 541C777.3 541 731.7 541 686 541C640.3 541 594.7 541 548.8 541C503 541 457 541 411.2 541C365.3 541 319.7 541 274 541C228.3 541 182.7 541 137 541C91.3 541 45.7 541 22.8 541L0 541Z" fill="#e34c67"/><path d="M0 474L22.8 476.8C45.7 479.7 91.3 485.3 137 484.3C182.7 483.3 228.3 475.7 274 469C319.7 462.3 365.3 456.7 411.2 454C457 451.3 503 451.7 548.8 457.2C594.7 462.7 640.3 473.3 686 478.3C731.7 483.3 777.3 482.7 823 476.3C868.7 470 914.3 458 937.2 452L960 446L960 541L937.2 541C914.3 541 868.7 541 823 541C777.3 541 731.7 541 686 541C640.3 541 594.7 541 548.8 541C503 541 457 541 411.2 541C365.3 541 319.7 541 274 541C228.3 541 182.7 541 137 541C91.3 541 45.7 541 22.8 541L0 541Z" fill="#c62368"/></svg>